<?xml version="1.0" encoding="UTF-8" standalone="yes"?>
<svg xmlns="http://www.w3.org/2000/svg" xmlns:xlink="http://www.w3.org/1999/xlink" width="160" height="160">
<rect width="100%" height="100%" fill="#999999"/>
<path d="M90 0 h20 v20 h-10 v20 h10 v10 h-10 v10 h-10 v10 h10 v10 h10 v20 h10 v20 h-20 v-10
         h-10 v-10 h-10 v10 h10 v10 h10 v10 h10 v20 h10 v10 h-30 v-10 h-10 v-10 h10 v-10 h-10
         v10 h-10 v10 h10 v10 h-30 v-30 h10 v-10 h-20 v-20 h10 v-20 h10 v-10 h10 v-10 h-10
         v-30 h-10 v-10 h10 v-10 h30 v-10z
         M80 30 v10 h10 v-10z"
         style="fill:#FFEBEE" />
</svg>
